<?xml version="1.0" encoding="UTF-8"?>
<svg version="1.1" xmlns="http://www.w3.org/2000/svg" width="1024" height="1024">
<path d="M0 0 C1.34846248 -0.00679667 1.34846248 -0.00679667 2.72416663 -0.01373065 C5.73150784 -0.02637351 8.7386679 -0.02475428 11.74603271 -0.02310181 C13.90487907 -0.0290875 16.06372329 -0.03589314 18.2225647 -0.04345703 C24.08687877 -0.0611294 29.95113447 -0.0658132 35.8154726 -0.0670886 C39.4851193 -0.06851114 43.15475121 -0.0727829 46.82439423 -0.07808304 C59.64431192 -0.09659406 72.46418804 -0.10475314 85.28411865 -0.10317993 C97.20251885 -0.1019813 109.12073713 -0.12302629 121.03909135 -0.15466726 C131.29164673 -0.18090801 141.54414304 -0.19154382 151.79673171 -0.19026911 C157.91067758 -0.18976136 164.02446213 -0.1953395 170.13837433 -0.21662521 C175.9004567 -0.23613673 181.66222615 -0.23604444 187.42432022 -0.22159195 C189.52599424 -0.21951802 191.62768849 -0.22411901 193.72932816 -0.23631287 C229.03911465 -0.42771807 257.73987357 12.67445881 282.97161865 37.26742554 C305.00011239 59.21710534 316.63766974 90.40684941 317.15911865 121.20492554 C316.90105989 149.84944853 308.87036224 178.22560733 289.97161865 200.26742554 C289.29486084 201.06535522 288.61810303 201.86328491 287.9208374 202.68539429 C266.91232924 226.75375622 239.94015776 240.72504695 208.06365585 243.09682465 C196.98849928 243.70788831 185.86385952 243.51275932 174.77506089 243.47021341 C170.90208554 243.45753694 167.02910557 243.45652245 163.15611267 243.4541626 C155.8539436 243.44799673 148.55183588 243.43165368 141.24969357 243.41146362 C132.92293882 243.38895036 124.59618081 243.37807278 116.2694031 243.36807275 C99.17010639 243.34728188 82.07086905 243.31220332 64.97161865 243.26742554 C64.96281929 244.48105774 64.96281929 244.48105774 64.95384216 245.71920776 C64.895776 253.3693152 64.82362044 261.0191021 64.73590374 268.66892242 C64.69130467 272.60114973 64.65202607 276.53327594 64.62518311 280.46566772 C64.59904493 284.26545515 64.55856981 288.06485129 64.50843239 291.86439514 C64.49183433 293.30909839 64.48027629 294.7538692 64.47400475 296.19865417 C64.42566839 306.31651265 64.0015949 314.87554215 56.83880615 322.66195679 C48.44504985 329.87918239 38.81204941 330.4219106 28.2333374 330.43539429 C27.31252884 330.43872269 26.39172028 330.44205109 25.44300842 330.44548035 C23.50243628 330.45052245 21.56185554 330.45288952 19.62127686 330.45272827 C16.67866469 330.45491104 13.7364301 330.47308567 10.79388428 330.49203491 C8.89870325 330.49497029 7.00352047 330.49695412 5.1083374 330.49789429 C3.80783699 330.50867256 3.80783699 330.50867256 2.48106384 330.51966858 C-7.59951141 330.48263861 -16.30275957 329.10750173 -24.02838135 322.26742554 C-31.77937937 313.79804233 -31.3291336 301.2374619 -31.28234863 290.40690613 C-31.28546861 289.27594267 -31.2885886 288.14497921 -31.29180312 286.97974414 C-31.29972372 283.22377687 -31.29348276 279.46797383 -31.28717041 275.71200562 C-31.28878353 273.00565764 -31.29337339 270.29931645 -31.29779053 267.5929718 C-31.30664906 261.02626561 -31.30477863 254.45960534 -31.29896525 247.8928974 C-31.29443592 242.55429827 -31.29384133 237.21571194 -31.29601288 231.87711143 C-31.29631934 231.11533612 -31.29662581 230.3535608 -31.29694156 229.56870138 C-31.29758105 228.02087937 -31.29822948 226.47305736 -31.29888675 224.92523535 C-31.30457936 210.43784411 -31.29804835 195.95047824 -31.28728601 181.46309116 C-31.27834606 169.04442235 -31.27990827 156.62579094 -31.28912354 144.2071228 C-31.29983574 129.76450015 -31.30403582 115.32189967 -31.29789901 100.87927359 C-31.29726194 99.33827985 -31.2966332 97.7972861 -31.29601288 96.25629234 C-31.29570433 95.49820417 -31.29539578 94.740116 -31.29507788 93.95905546 C-31.29335419 88.6281274 -31.29625887 83.29721348 -31.30097198 77.96628761 C-31.30659115 71.4681462 -31.3050424 64.97005309 -31.2944105 58.47191719 C-31.28916853 55.15937638 -31.28815568 51.84693225 -31.2937088 48.5343895 C-31.29918087 44.93851101 -31.29230974 41.34285817 -31.28234863 37.74699402 C-31.2890408 36.18774294 -31.2890408 36.18774294 -31.29586816 34.59699184 C-31.24083039 24.34039997 -29.82221685 16.22848388 -23.02838135 8.26742554 C-16.01670552 1.73064409 -9.39763833 -0.03489829 0 0 Z M68.9130249 88.88851929 C68.45798584 89.48793335 68.00294678 90.08734741 67.53411865 90.70492554 C67.06103271 91.30176147 66.58794678 91.89859741 66.1005249 92.51351929 C63.79144884 96.10097656 63.84981448 99.24353501 63.85809326 103.39120483 C63.85816879 104.65228561 63.85824432 105.91336639 63.85832214 107.21266174 C63.86342877 108.58898966 63.86864476 109.96531717 63.8739624 111.34164429 C63.87582779 112.74983164 63.87725112 114.15801965 63.87825012 115.56620789 C63.88206577 119.27009884 63.89188794 122.97395049 63.9029541 126.67782593 C63.91318868 130.4583381 63.91775213 134.23885663 63.92279053 138.01937866 C63.93351106 145.43541219 63.95057606 152.85141335 63.97161865 160.26742554 C81.40071608 160.31422868 98.82979377 160.34945503 116.25893974 160.37104988 C124.35231507 160.38134502 132.44565126 160.39537152 140.53900146 160.41830444 C147.59642951 160.43829242 154.65382919 160.45115477 161.71128476 160.45560253 C165.44518174 160.45820078 169.17899761 160.46427075 172.9128685 160.47888565 C177.08987719 160.49510114 181.26674652 160.49540177 185.44378662 160.49447632 C187.28338203 160.50526215 187.28338203 160.50526215 189.16014099 160.51626587 C202.74844294 160.48377036 211.54205545 158.22614215 221.72161865 149.07992554 C228.95494536 141.52698672 231.10851073 131.88900942 231.15911865 121.76742554 C231.17329834 120.47836304 231.18747803 119.18930054 231.2020874 117.86117554 C230.98428684 114.46496342 230.38415112 112.31609599 228.97161865 109.26742554 C228.84786865 108.46305054 228.72411865 107.65867554 228.59661865 106.82992554 C226.8397467 99.62675053 220.7429514 94.60435098 215.22161865 90.07992554 C214.6286499 89.59137085 214.03568115 89.10281616 213.42474365 88.59945679 C206.18519446 84.66842769 197.80547717 84.97926007 189.78582764 85.00863647 C188.59767456 85.00513184 187.40952148 85.0016272 186.18536377 84.99801636 C182.95193544 84.9907621 179.71867298 84.99240599 176.48524737 84.99877453 C173.0870702 85.0038713 169.68890336 84.99913303 166.29072571 84.9960022 C160.5874129 84.9923737 154.88415207 84.99713276 149.18084717 85.00668335 C142.60347312 85.017571 136.02622306 85.0140356 129.448852 85.00303054 C123.78233963 84.99393199 118.1158644 84.99268475 112.44934708 84.99790788 C109.07336749 85.00101282 105.69744603 85.00147766 102.32147026 84.9948349 C98.55690047 84.98974406 94.79256735 84.99751595 91.02801514 85.00863647 C89.92077591 85.00458801 88.81353668 85.00053955 87.67274475 84.99636841 C77.7271461 84.89790961 77.7271461 84.89790961 68.9130249 88.88851929 Z " fill="#485D72" transform="translate(385.02838134765625,275.7325744628906)"/>
<path d="M0 0 C0.07013696 19.28899674 0.12301114 38.57796754 0.15543652 57.86706543 C0.17089356 66.8236925 0.19196083 75.78024025 0.22631836 84.73681641 C0.25625634 92.5450054 0.27558346 100.35313693 0.28226548 108.16138172 C0.2861703 112.29431586 0.29532284 116.42708566 0.31719017 120.55996704 C0.3376249 124.45381344 0.34381976 128.34742854 0.33932304 132.24132347 C0.34014513 133.66670173 0.34606917 135.0920881 0.35761642 136.51741982 C0.43498442 146.56415744 -0.06582232 154.71225585 -7.1328125 162.39453125 C-15.5265688 169.61175685 -25.15956924 170.15448507 -35.73828125 170.16796875 C-37.11949409 170.17296135 -37.11949409 170.17296135 -38.52861023 170.17805481 C-40.46918237 170.18309691 -42.40976311 170.18546398 -44.3503418 170.18530273 C-47.29295397 170.1874855 -50.23518855 170.20566014 -53.17773438 170.22460938 C-55.0729154 170.22754475 -56.96809819 170.22952858 -58.86328125 170.23046875 C-60.16378166 170.24124702 -60.16378166 170.24124702 -61.49055481 170.25224304 C-71.52520352 170.21538178 -80.33875985 168.87547193 -88 162 C-92.62382859 156.36091549 -94.15131943 151.14438941 -94.08229065 143.88102722 C-94.07525116 142.87286957 -94.06821167 141.86471191 -94.06095886 140.82600403 C-94.04801285 139.73124252 -94.03506683 138.63648102 -94.02172852 137.50854492 C-94.01212097 136.34713989 -94.00251343 135.18573486 -93.99261475 133.98913574 C-93.95965151 130.15285123 -93.91930872 126.31668153 -93.87890625 122.48046875 C-93.85460253 119.81960842 -93.83070785 117.15874757 -93.80735779 114.49787903 C-93.75129685 108.21166714 -93.68992504 101.92551881 -93.62663645 95.63937598 C-93.5548258 88.48102963 -93.48894895 81.32263249 -93.42356598 74.16422498 C-93.28897129 59.44275157 -93.14693962 44.72135549 -93 30 C-87.24296737 27.98445292 -81.48528377 25.97077915 -75.72705078 23.95866394 C-73.77798798 23.27732511 -71.8290883 22.5955194 -69.88037109 21.91319275 C-53.13810969 16.05161856 -36.33891123 10.3774812 -19.48439026 4.84745979 C-14.64065952 3.24621556 -9.87638408 1.47637142 -5.13671875 -0.40942383 C-3 -1 -3 -1 0 0 Z " fill="#7691AD" transform="translate(449,436)"/>
<path d="M0 0 C2.4375 2.0625 2.4375 2.0625 4 4 C3.67 4.66 3.34 5.32 3 6 C3.763125 5.21625 4.52625 4.4325 5.3125 3.625 C9.98475079 -0.9385938 9.98475079 -0.9385938 12.9375 -1.1171875 C18.41177514 -0.47437489 18.41177514 -0.47437489 20.9375 1.5625 C22.85657389 5.96508127 23.4196207 10.11170686 22.375 14.8125 C20.55990792 17.70014649 19.17398336 18.73040666 16 20 C10.050783 19.79485459 10.050783 19.79485459 7.33203125 17.73828125 C5.65163928 15.54539436 5.51071712 14.04789625 5.3125 11.3125 C5.21388672 10.10013672 5.21388672 10.10013672 5.11328125 8.86328125 C5.07589844 8.24839844 5.03851563 7.63351562 5 7 C3.02 7.33 1.04 7.66 -1 8 C-1.66 6.68 -2.32 5.36 -3 4 C-4.32 4.33 -5.64 4.66 -7 5 C-7.84454356 8.37817425 -8.10844919 10.67465243 -7 14 C-6.34 14 -5.68 14 -5 14 C-5 14.66 -5 15.32 -5 16 C-4.01 15.34 -3.02 14.68 -2 14 C-2 13.01 -2 12.02 -2 11 C-0.02 11 1.96 11 4 11 C3.13859136 14.52394445 2.53586149 16.53856372 -0.25 18.9375 C-3.72021697 20.27826565 -5.46870169 20.1270101 -9 19 C-12.4408124 16.67512676 -12.94995734 15.20684298 -13.9375 11.125 C-14.25836526 7.0301481 -13.36230491 4.42126917 -11 1 C-7.51811815 -1.86011723 -4.17847912 -1.04461978 0 0 Z M10 5 C9.26393501 8.56769552 9.26393501 8.56769552 9 12 C9.66 12 10.32 12 11 12 C11 12.99 11 13.98 11 15 C14 16.33333333 14 16.33333333 17 15 C18.52491998 11.95016004 18.23562548 9.3576631 18 6 C16.76913958 4.0153062 16.76913958 4.0153062 15 3 C12.67642489 2.81509993 12.67642489 2.81509993 10 5 Z " fill="#3C495A" transform="translate(468,927)"/>
<path d="M0 0 C0.66 0 1.32 0 2 0 C0.32908869 6.12667481 -4.12688961 10.19363852 -9.3671875 13.48828125 C-19.23484381 18.69877267 -28.5353546 19.29070204 -39.50610352 19.22705078 C-40.84731538 19.22648559 -42.18852787 19.22680533 -43.52973938 19.22793579 C-47.14484882 19.22850609 -50.75982366 19.21680451 -54.37490201 19.20278788 C-58.16252017 19.19022629 -61.95014193 19.18910576 -65.73777771 19.18673706 C-72.89861611 19.18053817 -80.05939293 19.16414903 -87.22020429 19.14403808 C-95.3774438 19.12162938 -103.53468635 19.11067319 -111.69194901 19.10064721 C-128.4613353 19.07978127 -145.23065977 19.04463646 -162 19 C-162 18.34 -162 17.68 -162 17 C-161.30831034 16.99668985 -160.61662067 16.99337971 -159.90397072 16.98996925 C-143.04308247 16.90860984 -126.1822906 16.8164754 -109.32152748 16.71247292 C-101.16765833 16.66243483 -93.01379879 16.61599119 -84.85986328 16.578125 C-77.74964404 16.54509649 -70.63950138 16.50520597 -63.52936685 16.45720994 C-59.76756359 16.43205245 -56.00581041 16.41023999 -52.24394608 16.39665604 C-48.69643223 16.38373738 -45.14909111 16.36157961 -41.60167313 16.33261681 C-39.69279579 16.31935594 -37.78385945 16.31563858 -35.87493896 16.31230164 C-24.77952286 16.20534496 -15.66242712 15.37910459 -7 8 C-5.03220835 5.91203787 -3.19138333 3.78770377 -1.41015625 1.5390625 C-0.94480469 1.03117187 -0.47945312 0.52328125 0 0 Z " fill="#253343" transform="translate(610,419)"/>
<path d="M0 0 C0.99 0 1.98 0 3 0 C3.99 0 4.98 0 6 0 C6.87269758 4.55351078 7.19387654 8.92763722 7.25 13.5625 C7.27578125 14.84253906 7.3015625 16.12257813 7.328125 17.44140625 C6.98132128 21.20257513 6.27935817 23.03191491 4 26 C1.01935251 27.77227689 -0.65359521 28.02078429 -4.125 27.8125 C-7.14536221 26.95891938 -8.20367297 26.51485784 -10 24 C-11.1875 21.3125 -11.1875 21.3125 -12 19 C-6.25 20.875 -6.25 20.875 -4 22 C-4 21.34 -4 20.68 -4 20 C-4.78375 19.731875 -5.5675 19.46375 -6.375 19.1875 C-9 18 -9 18 -11 15 C-11.1953125 11.86328125 -11.1953125 11.86328125 -11.125 8.3125 C-11.09792969 6.54326172 -11.09792969 6.54326172 -11.0703125 4.73828125 C-11.04710937 3.83464844 -11.02390625 2.93101562 -11 2 C-10.38125 1.855625 -9.7625 1.71125 -9.125 1.5625 C-2.95037221 -0.0719603 -2.95037221 -0.0719603 0 0 Z M-5.75 5.6875 C-7.23362682 8.43220962 -7.47320719 9.92415328 -7 13 C-5.93654948 14.98029682 -5.93654948 14.98029682 -4 16 C-0.68181015 15.75794651 -0.68181015 15.75794651 2 14 C2.22918242 9.98342857 2.22918242 9.98342857 2 6 C1.34 5.34 0.68 4.68 0 4 C-3.92528402 3.53724295 -3.92528402 3.53724295 -5.75 5.6875 Z M1 18 C2 21 2 21 2 21 Z M-3 20 C-2 22 -2 22 -2 22 Z " fill="#414F60" transform="translate(569,926)"/>
<path d="M0 0 C28.44261464 -0.09355992 56.88520612 -0.16403637 85.3279438 -0.20724869 C98.53525063 -0.22784877 111.74246169 -0.2559206 124.94970703 -0.30175781 C136.46497567 -0.34170368 147.98017493 -0.36745137 159.49551094 -0.37635398 C165.5893201 -0.38155556 171.6829308 -0.39372809 177.77667618 -0.42292023 C183.52058249 -0.4502117 189.2642099 -0.45841729 195.0081749 -0.45243073 C197.10830962 -0.45352484 199.20845436 -0.4613963 201.30853271 -0.4768219 C212.95390429 -0.55811376 222.96508544 -0.07785775 234 4 C235.12047289 4.39386776 236.24094578 4.78773552 237.39537239 5.19353867 C239.9438385 6.09712672 242.47564613 7.03147239 245 8 C245 8.66 245 9.32 245 10 C243.26982492 9.54548816 241.54090123 9.08621143 239.8125 8.625 C238.84957031 8.36976563 237.88664063 8.11453125 236.89453125 7.8515625 C234 7 234 7 231.66165447 6.04665089 C219.59263261 1.30071089 207.45083213 1.55664374 194.69604492 1.56762695 C192.56606991 1.55859652 190.43610007 1.54826619 188.30613708 1.53674316 C182.55914236 1.50929759 176.81224658 1.4999056 171.06519485 1.49388909 C165.04605338 1.48447292 159.02698488 1.45826698 153.00788879 1.43388367 C141.6256444 1.39030401 130.24341423 1.36170467 118.86111194 1.33856028 C105.89608141 1.31146279 92.9311246 1.26755413 79.96614683 1.22227156 C53.31080458 1.12954753 26.65543922 1.05781083 0 1 C0 0.67 0 0.34 0 0 Z " fill="#202E3E" transform="translate(384,277)"/>
<path d="M0 0 C0.88873464 0.00054477 1.77746927 0.00108953 2.69313526 0.00165081 C3.71229527 -0.00254368 4.73145527 -0.00673817 5.78149891 -0.01105976 C7.46540226 -0.0026305 7.46540226 -0.0026305 9.18332386 0.00596905 C10.36230747 0.0040707 11.54129108 0.00217236 12.75600147 0.00021648 C15.99598109 -0.00286024 19.23579373 0.00303617 22.4757545 0.01316953 C25.86776275 0.021947 29.25976665 0.02019257 32.65178394 0.01980877 C38.35405238 0.02074623 44.05626772 0.0294374 49.75851917 0.04307842 C56.34085072 0.05876716 62.92312394 0.06407784 69.50547284 0.06334287 C76.51920101 0.0626656 83.53290683 0.06962141 90.54662824 0.07878947 C92.56283831 0.08091545 94.57904476 0.08162995 96.59525585 0.08202839 C100.36552672 0.08420024 104.1357249 0.09296407 107.90598011 0.1036253 C109.01846119 0.10317211 110.13094227 0.10271893 111.2771349 0.10225201 C116.58139777 0.12414641 121.64279963 0.31688014 126.86813831 1.24888897 C126.86813831 1.57888897 126.86813831 1.90888897 126.86813831 2.24888897 C96.01973808 3.32406043 65.22630668 3.22730493 34.36813831 2.81138897 C33.41672836 2.79857513 32.46531841 2.7857613 31.48507786 2.77255917 C19.61255701 2.61141568 7.74026912 2.43651291 -4.13186169 2.24888897 C-2.13186169 0.24888897 -2.13186169 0.24888897 0 0 Z " fill="#2A3849" transform="translate(464.13186168670654,358.7511110305786)"/>
<path d="M0 0 C1.9375 1.375 1.9375 1.375 3 3 C3 6 3 6 1.5 7.6875 C1.005 8.120625 0.51 8.55375 0 9 C0.99 9.33 1.98 9.66 3 10 C4.0827729 12.41541647 4.12945377 13.59987018 3.3125 16.125 C1.66847685 18.4736045 0.75932727 19.17965946 -2 20 C-5.95739144 19.85866459 -8.27346769 19.52673593 -11.5 17.1875 C-13 15 -13 15 -12.75 12.75 C-12.5025 12.1725 -12.255 11.595 -12 11 C-10.02 11.495 -10.02 11.495 -8 12 C-8 12.99 -8 13.98 -8 15 C-6.35 15 -4.7 15 -3 15 C-3.33 14.01 -3.66 13.02 -4 12 C-6.30252483 10.93097061 -8.6372026 9.92824183 -11 9 C-12 8 -12 8 -12.375 5.6875 C-12 3 -12 3 -9.9375 0.625 C-6.10347059 -1.49595244 -4.16819684 -1.15783246 0 0 Z M-6 3 C-6 4.32 -6 5.64 -6 7 C-4.35 7.33 -2.7 7.66 -1 8 C-1 7.01 -1 6.02 -1 5 C-3.475 4.01 -3.475 4.01 -6 3 Z " fill="#384656" transform="translate(535,927)"/>
<path d="M0 0 C17.45607242 2.68317721 37.07820079 22.86970741 47.19482422 36.62451172 C56.75749344 50.01077801 68.85883439 67.92741341 68 85 C67.34 84.67 66.68 84.34 66 84 C65.39453125 81.875 65.39453125 81.875 64.8125 79 C61.81588896 66.36604691 56.55681042 54.55730868 49 44 C48.01773438 42.57494141 48.01773438 42.57494141 47.015625 41.12109375 C35.73594698 25.33366119 21.47481367 13.50640886 4.72314453 3.82910156 C3.1349354 2.90954637 1.56531536 1.95800721 0 1 C0 0.67 0 0.34 0 0 Z " fill="#303E4E" transform="translate(630,287)"/>
<path d="M0 0 C0.86109375 -0.03738281 1.7221875 -0.07476563 2.609375 -0.11328125 C6.30562474 0.48271168 7.79240405 1.47816028 10.25 4.3125 C10.85020106 7.25557806 10.72353133 10.07474956 10.5625 13.0625 C10.53994141 13.85527344 10.51738281 14.64804687 10.49414062 15.46484375 C10.43540471 17.4148762 10.34572654 19.36393312 10.25 21.3125 C8.93 21.3125 7.61 21.3125 6.25 21.3125 C5.92 16.3625 5.59 11.4125 5.25 6.3125 C1.61380344 5.23165479 1.61380344 5.23165479 -0.75 5.3125 C-0.75 10.2625 -0.75 15.2125 -0.75 20.3125 C-2.07 20.6425 -3.39 20.9725 -4.75 21.3125 C-5.41 20.6525 -6.07 19.9925 -6.75 19.3125 C-6.5078125 16.9296875 -6.5078125 16.9296875 -5.875 14.1875 C-5.67132813 13.27742187 -5.46765625 12.36734375 -5.2578125 11.4296875 C-5.09023438 10.73101563 -4.92265625 10.03234375 -4.75 9.3125 C-5.41 8.9825 -6.07 8.6525 -6.75 8.3125 C-5.71248009 0.16055787 -5.71248009 0.16055787 0 0 Z " fill="#354352" transform="translate(498.75,925.6875)"/>
<path d="M0 0 C0.33 0 0.66 0 1 0 C1 54.12 1 108.24 1 164 C0.67 164 0.34 164 0 164 C0 159.71 0 155.42 0 151 C-0.66 150.67 -1.32 150.34 -2 150 C-2 143.73 -2 137.46 -2 131 C-1.67 131 -1.34 131 -1 131 C-0.67 87.77 -0.34 44.54 0 0 Z " fill="#556D85" transform="translate(356,301)"/>
<path d="M0 0 C2.625 0.9375 2.625 0.9375 5 2 C5.33 4.97 5.66 7.94 6 11 C6.99 11 7.98 11 9 11 C9 8.69 9 6.38 9 4 C9.66 4 10.32 4 11 4 C11 2.68 11 1.36 11 0 C12.65 0 14.3 0 16 0 C15.835 1.093125 15.67 2.18625 15.5 3.3125 C14.93281816 6.87525873 14.93281816 6.87525873 15 10 C14.34 9.67 13.68 9.34 13 9 C12.89042969 9.61488281 12.78085937 10.22976563 12.66796875 10.86328125 C12.50941406 11.67152344 12.35085938 12.47976563 12.1875 13.3125 C12.03667969 14.11300781 11.88585937 14.91351562 11.73046875 15.73828125 C10.92427764 18.23445587 9.97947998 19.32422106 8 21 C7.01 20.67 6.02 20.34 5 20 C3.25327015 16.5065403 2 13.93154432 2 10 C0.68 9.34 -0.64 8.68 -2 8 C-2 5.69 -2 3.38 -2 1 C-1.34 0.67 -0.68 0.34 0 0 Z M7 12 C8 14 8 14 8 14 Z " fill="#3A495B" transform="translate(541,926)"/>
<path d="M0 0 C7.97232996 -0.09339968 15.9444247 -0.16411443 23.91716957 -0.20724869 C27.62076 -0.22796927 31.32397138 -0.25599517 35.02734375 -0.30175781 C38.6130168 -0.3457799 42.19832937 -0.36925324 45.78425217 -0.37950897 C47.79245665 -0.39030718 49.80051963 -0.42143891 51.8085022 -0.45318604 C64.75480366 -0.4562897 76.0254974 3.40570104 88 8 C88 8.66 88 9.32 88 10 C86.26982492 9.54548816 84.54090123 9.08621143 82.8125 8.625 C81.84957031 8.36976563 80.88664063 8.11453125 79.89453125 7.8515625 C77 7 77 7 74.6894989 6.04634094 C64.98110377 2.26932088 55.13856383 1.54215148 44.82421875 1.48828125 C43.53304642 1.47033005 42.24187408 1.45237885 40.91157532 1.43388367 C37.52683438 1.38698193 34.14215713 1.35679031 30.75720215 1.33044434 C27.28397018 1.30033138 23.81095699 1.25390941 20.33789062 1.20898438 C13.55871974 1.1236352 6.7794754 1.05599139 0 1 C0 0.67 0 0.34 0 0 Z " fill="#1F2C3C" transform="translate(541,277)"/>
<path d="M0 0 C0.99 0 1.98 0 3 0 C3.12375 0.78375 3.2475 1.5675 3.375 2.375 C3.79117993 5.14057822 3.79117993 5.14057822 6 7 C5.34 7 4.68 7 4 7 C4.33 7.99 4.66 8.98 5 10 C4.91538508 11.73324119 4.76395645 13.46392812 4.5625 15.1875 C4.46066406 16.08855469 4.35882813 16.98960937 4.25390625 17.91796875 C4.17011719 18.60503906 4.08632813 19.29210937 4 20 C2.35 20 0.7 20 -1 20 C-1.02888514 16.85418577 -1.04675923 13.70840531 -1.0625 10.5625 C-1.07087891 9.66466797 -1.07925781 8.76683594 -1.08789062 7.84179688 C-1.09111328 6.98779297 -1.09433594 6.13378906 -1.09765625 5.25390625 C-1.10551147 4.06776733 -1.10551147 4.06776733 -1.11352539 2.85766602 C-1 1 -1 1 0 0 Z " fill="#465464" transform="translate(448,926)"/>
<path d="M0 0 C4 4.97297297 4 4.97297297 4 8 C3.34 8 2.68 8 2 8 C1.34 7.01 0.68 6.02 0 5 C-1.65 5.33 -3.3 5.66 -5 6 C-5.99 9.3 -6.98 12.6 -8 16 C-8.99 15.67 -9.98 15.34 -11 15 C-11 10.71 -11 6.42 -11 2 C-9.68 1.67 -8.36 1.34 -7 1 C-4.34665389 -0.32667306 -2.94124405 -0.49020734 0 0 Z " fill="#344151" transform="translate(569,926)"/>
<path d="M0 0 C0.33 0 0.66 0 1 0 C-0.54154246 16.12417977 -9.37859227 31.85349711 -19.5546875 44.23046875 C-21.16890983 46.14857027 -21.16890983 46.14857027 -23 49 C-23.66 49 -24.32 49 -25 49 C-23.62640873 45.88502525 -21.78849207 43.33156548 -19.72509766 40.63623047 C-10.55866865 28.54294017 -4.15935647 14.57229084 0 0 Z " fill="#2E3C4C" transform="translate(696,430)"/>
<path d="M0 0 C0.33 0 0.66 0 1 0 C1.48484848 7.27272727 1.48484848 7.27272727 -0.625 10.4375 C-3.54391778 12.35784064 -5.5114891 12.8576118 -9 13 C-12.52425741 12.18040525 -13.68971932 11.41370757 -15.875 8.5 C-16.24625 7.675 -16.6175 6.85 -17 6 C-16.67 5.34 -16.34 4.68 -16 4 C-13.5625 4.8125 -13.5625 4.8125 -11 6 C-10.67 6.99 -10.34 7.98 -10 9 C-8.35 9 -6.7 9 -5 9 C-4.67 8.01 -4.34 7.02 -4 6 C-3.34 6 -2.68 6 -2 6 C-1.34 4.02 -0.68 2.04 0 0 Z " fill="#3C4959" transform="translate(574,941)"/>
<path d="M0 0 C-2.86903575 8.60710726 -16.46531568 14.61981362 -24.0625 18.6875 C-24.88347168 19.13359619 -25.70444336 19.57969238 -26.55029297 20.03930664 C-27.71842529 20.64440063 -27.71842529 20.64440063 -28.91015625 21.26171875 C-29.60246338 21.62225342 -30.29477051 21.98278809 -31.00805664 22.35424805 C-33.3944048 23.12785889 -34.66398909 22.81507001 -37 22 C-35.97261719 21.50371094 -34.94523438 21.00742187 -33.88671875 20.49609375 C-22.93255055 15.15023698 -12.49026909 9.73403833 -3.55859375 1.28515625 C-2 0 -2 0 0 0 Z " fill="#2F3C4C" transform="translate(662,488)"/>
<path d="M0 0 C0.99 0 1.98 0 3 0 C3.12375 0.969375 3.2475 1.93875 3.375 2.9375 C3.684375 4.4534375 3.684375 4.4534375 4 6 C4.66 6.33 5.32 6.66 6 7 C6.33 7.99 6.66 8.98 7 10 C8.49985609 11.66710346 8.49985609 11.66710346 10 13 C9 14 9 14 6.125 14.25 C3 14 3 14 1.31640625 12.83984375 C-0.52272301 10.26942868 -0.29773326 8.43577562 -0.1875 5.3125 C-0.16042969 4.31863281 -0.13335937 3.32476563 -0.10546875 2.30078125 C-0.07066406 1.54152344 -0.03585937 0.78226563 0 0 Z " fill="#394657" transform="translate(474,932)"/>
<path d="M0 0 C0.99 0 1.98 0 3 0 C3 5.61 3 11.22 3 17 C1.68 17 0.36 17 -1 17 C-1.02691685 14.54159395 -1.04679802 12.08348118 -1.0625 9.625 C-1.07087891 8.92632813 -1.07925781 8.22765625 -1.08789062 7.5078125 C-1.11328125 2.2265625 -1.11328125 2.2265625 0 0 Z " fill="#384556" transform="translate(506,930)"/>
<path d="M0 0 C0.33 0 0.66 0 1 0 C1.28875 1.0725 1.5775 2.145 1.875 3.25 C2.77964414 6.79336594 2.77964414 6.79336594 4.125 8.9375 C5.52981522 12.24885017 5.11901139 15.42965822 5 19 C3.125 19.625 3.125 19.625 1 20 C0.34 19.34 -0.32 18.68 -1 18 C-0.7578125 15.6171875 -0.7578125 15.6171875 -0.125 12.875 C0.07867187 11.96492187 0.28234375 11.05484375 0.4921875 10.1171875 C0.65976562 9.41851563 0.82734375 8.71984375 1 8 C0.34 7.67 -0.32 7.34 -1 7 C-0.67 4.69 -0.34 2.38 0 0 Z " fill="#435161" transform="translate(493,927)"/>
<path d="M0 0 C0.33 0 0.66 0 1 0 C1 11.88 1 23.76 1 36 C0.67 36 0.34 36 0 36 C0 31.71 0 27.42 0 23 C-0.66 22.67 -1.32 22.34 -2 22 C-2.05807043 18.89591193 -2.09361914 15.7919636 -2.125 12.6875 C-2.14175781 11.80642578 -2.15851563 10.92535156 -2.17578125 10.01757812 C-2.18222656 9.17001953 -2.18867188 8.32246094 -2.1953125 7.44921875 C-2.20578613 6.66893311 -2.21625977 5.88864746 -2.22705078 5.0847168 C-2 3 -2 3 0 0 Z " fill="#51667D" transform="translate(356,429)"/>
<path d="M0 0 C0.66 0 1.32 0 2 0 C0.318088 6.16701066 -4.18081336 10.28740998 -9.5078125 13.5234375 C-13.57889647 15.62581818 -17.39020907 17.54343924 -22 18 C-24.3125 17.0625 -24.3125 17.0625 -26 16 C-25.38253906 15.92523438 -24.76507812 15.85046875 -24.12890625 15.7734375 C-13.99925125 14.200797 -7.70115182 9.48088669 -1.41015625 1.5390625 C-0.71212891 0.77722656 -0.71212891 0.77722656 0 0 Z " fill="#394758" transform="translate(610,419)"/>
<path d="M0 0 C1.98 0 3.96 0 6 0 C5.13859136 3.52394445 4.53586149 5.53856372 1.75 7.9375 C-1.59664885 9.23052342 -3.56802703 8.87794657 -7 8 C-7 7.01 -7 6.02 -7 5 C-4.69 4.34 -2.38 3.68 0 3 C0 2.01 0 1.02 0 0 Z " fill="#354151" transform="translate(466,938)"/>
<path d="M0 0 C5.67907887 0.56600002 10.77311113 1.66033696 16.1875 3.4375 C16.87263672 3.65470703 17.55777344 3.87191406 18.26367188 4.09570312 C21.90327667 5.26219821 25.47301421 6.52756904 29 8 C29 8.66 29 9.32 29 10 C27.26982492 9.54548816 25.54090123 9.08621143 23.8125 8.625 C22.84957031 8.36976563 21.88664063 8.11453125 20.89453125 7.8515625 C18 7 18 7 15.5625 6 C12.48330463 4.79836278 9.4128417 4.0917426 6.1875 3.375 C5.02605469 3.11460937 3.86460937 2.85421875 2.66796875 2.5859375 C1.78753906 2.39257812 0.90710938 2.19921875 0 2 C0 1.34 0 0.68 0 0 Z " fill="#303E50" transform="translate(600,277)"/>
<path d="M0 0 C2.41287575 3.61931363 2.38274316 6.36957874 2.375 10.5625 C2.37628906 11.27470703 2.37757813 11.98691406 2.37890625 12.72070312 C2.25895296 18.74562968 0.87048869 23.66909244 -2 29 C-3.1618017 25.30345095 -2.5477709 22.92934925 -1.52050781 19.20703125 C-0.64767249 15.50607849 -0.53256513 11.78812838 -0.375 8 C-0.33632813 7.22527344 -0.29765625 6.45054687 -0.2578125 5.65234375 C-0.16478643 3.76856585 -0.08136825 1.88431744 0 0 Z " fill="#334354" transform="translate(616,388)"/>
<path d="M0 0 C1.65 0 3.3 0 5 0 C4.835 1.093125 4.67 2.18625 4.5 3.3125 C3.93281816 6.87525873 3.93281816 6.87525873 4 10 C3.34 9.67 2.68 9.34 2 9 C1.67 9.99 1.34 10.98 1 12 C0.01 9.36 -0.98 6.72 -2 4 C-1.34 4 -0.68 4 0 4 C0 2.68 0 1.36 0 0 Z " fill="#445161" transform="translate(552,926)"/>
<path d="M0 0 C1.98 0.495 1.98 0.495 4 1 C4 1.99 4 2.98 4 4 C6.31 4.33 8.62 4.66 11 5 C10.01 6.485 10.01 6.485 9 8 C5.29570345 8.5636973 3.63380048 8.45503625 0.5625 6.25 C-1 4 -1 4 -0.75 1.75 C-0.5025 1.1725 -0.255 0.595 0 0 Z " fill="#2E3A49" transform="translate(523,938)"/>
<path d="M0 0 C0.66 0 1.32 0 2 0 C3.32854177 5.9180497 2.66464729 8.77729131 0 14 C-1.32 13.67 -2.64 13.34 -4 13 C-3.67 12.01 -3.34 11.02 -3 10 C-2.34 10.33 -1.68 10.66 -1 11 C-0.67 7.37 -0.34 3.74 0 0 Z " fill="#313E4E" transform="translate(550,933)"/>
<path d="M0 0 C2.625 0.9375 2.625 0.9375 5 2 C4.01 4.64 3.02 7.28 2 10 C0.68 9.34 -0.64 8.68 -2 8 C-2 5.69 -2 3.38 -2 1 C-1.34 0.67 -0.68 0.34 0 0 Z " fill="#455363" transform="translate(541,926)"/>
<path d="M0 0 C2.475 0.495 2.475 0.495 5 1 C4.67 1.99 4.34 2.98 4 4 C4.66 4.33 5.32 4.66 6 5 C5.34 5 4.68 5 4 5 C4 5.99 4 6.98 4 8 C3.01 8.33 2.02 8.66 1 9 C-0.4783226 6.04335481 -0.06032783 3.25770263 0 0 Z " fill="#3B495A" transform="translate(494,926)"/>
<path d="M0 0 C6.30445911 0.59104304 11.39280624 4.19190702 15.5 8.8125 C15.995 9.534375 16.49 10.25625 17 11 C12.63007446 9.63439827 9.50238634 7.23951393 5.96484375 4.4375 C4.04709409 3.03445453 2.15200239 1.9969187 0 1 C0 0.67 0 0.34 0 0 Z " fill="#2D3A4A" transform="translate(592,361)"/>
<path d="M0 0 C1.75 1.4375 1.75 1.4375 3 3 C1.625 5.5 1.625 5.5 0 8 C-0.66 8 -1.32 8 -2 8 C-2.66 5.69 -3.32 3.38 -4 1 C-2.1875 0.3125 -2.1875 0.3125 0 0 Z " fill="#3C495B" transform="translate(562,927)"/>
<path d="M0 0 C5.50808397 0.59015185 10.64878069 1.56663769 16 3 C16 3.33 16 3.66 16 4 C10.22192976 4.2358396 5.48675196 3.86783046 0 2 C0 1.34 0 0.68 0 0 Z " fill="#39485A" transform="translate(600,277)"/>
<path d="M0 0 C1.98 0 3.96 0 6 0 C5.39816251 2.02045442 4.72693904 4.02111039 4 6 C3.01 6.495 3.01 6.495 2 7 C2 6.34 2 5.68 2 5 C1.01 4.67 0.02 4.34 -1 4 C-0.67 2.68 -0.34 1.36 0 0 Z " fill="#445060" transform="translate(466,938)"/>
<path d="M0 0 C-0.11362262 1.4800841 -0.24122908 2.95910074 -0.375 4.4375 C-0.47941406 5.67306641 -0.47941406 5.67306641 -0.5859375 6.93359375 C-0.72257812 7.61550781 -0.85921875 8.29742188 -1 9 C-1.99 9.495 -1.99 9.495 -3 10 C-3.33 7.36 -3.66 4.72 -4 2 C-1 0 -1 0 0 0 Z " fill="#3B495A" transform="translate(458,932)"/>
<path d="M0 0 C0.99 0.33 1.98 0.66 3 1 C3.33 2.65 3.66 4.3 4 6 C3.01 6.33 2.02 6.66 1 7 C-1.1875 5.6875 -1.1875 5.6875 -3 4 C-3 3.34 -3 2.68 -3 2 C-2.01 1.34 -1.02 0.68 0 0 Z " fill="#3F4D5D" transform="translate(534,927)"/>
<path d="M0 0 C0.53625 0.2475 1.0725 0.495 1.625 0.75 C0.625 2.75 0.625 2.75 -2.125 3.6875 C-3.1975 4.038125 -4.27 4.38875 -5.375 4.75 C-7.06707001 5.7063874 -8.74316893 6.69410931 -10.375 7.75 C-8.77449323 3.26858103 -4.98031651 -0.52424384 0 0 Z " fill="#374657" transform="translate(372.375,278.25)"/>
<path d="M0 0 C0.33 0 0.66 0 1 0 C1.125 7.75 1.125 7.75 0 10 C-1.32 9.67 -2.64 9.34 -4 9 C-2.68 6.03 -1.36 3.06 0 0 Z " fill="#313F50" transform="translate(574,941)"/>
<path d="M0 0 C0.33 0.99 0.66 1.98 1 3 C1.66 3 2.32 3 3 3 C3 3.99 3 4.98 3 6 C-0.13498292 7.85776765 -2.37471432 8.20140476 -6 8 C-4.68 7.34 -3.36 6.68 -2 6 C-1.7763932 3.0745356 -1.7763932 3.0745356 -3 1 C-2.01 0.67 -1.02 0.34 0 0 Z " fill="#495666" transform="translate(534,939)"/>
<path d="M0 0 C2.475 0.495 2.475 0.495 5 1 C5.33 2.32 5.66 3.64 6 5 C4.02 5.33 2.04 5.66 0 6 C0 4.02 0 2.04 0 0 Z " fill="#4F5C6B" transform="translate(447,920)"/>
<path d="M0 0 C-1 2 -1 2 -3.6875 3.125 C-6.9579435 3.98889074 -9.63706182 4.16013991 -13 4 C-12.01 3.67 -11.02 3.34 -10 3 C-10 2.34 -10 1.68 -10 1 C-6.78548731 -0.60725635 -3.56387464 -0.05748185 0 0 Z " fill="#344153" transform="translate(624,511)"/>
<path d="M0 0 C2 2 2 2 2 6 C0.35 6 -1.3 6 -3 6 C-3 4.35 -3 2.7 -3 1 C-2.01 0.67 -1.02 0.34 0 0 Z " fill="#414C5B" transform="translate(517,940)"/>
<path d="M0 0 C0.99 0.66 1.98 1.32 3 2 C2.67 2.66 2.34 3.32 2 4 C2.99 3.67 3.98 3.34 5 3 C5 5.64 5 8.28 5 11 C4.67 11 4.34 11 4 11 C4 9.02 4 7.04 4 5 C2.02 5.33 0.04 5.66 -2 6 C-2.33 5.34 -2.66 4.68 -3 4 C-1.68 4 -0.36 4 1 4 C0.67 2.68 0.34 1.36 0 0 Z " fill="#586475" transform="translate(469,929)"/>
<path d="M0 0 C2.97 0.495 2.97 0.495 6 1 C5.01 2.485 5.01 2.485 4 4 C3.60986284 5.9896995 3.26797351 7.99019869 3 10 C2.67 10 2.34 10 2 10 C1.67 8.02 1.34 6.04 1 4 C0.34 4 -0.32 4 -1 4 C-0.67 2.68 -0.34 1.36 0 0 Z " fill="#4B596A" transform="translate(456,929)"/>
<path d="M0 0 C1.32 0 2.64 0 4 0 C4.625 1.8125 4.625 1.8125 5 4 C4.01 5.485 4.01 5.485 3 7 C3 6.34 3 5.68 3 5 C2.34 5 1.68 5 1 5 C1 4.01 1 3.02 1 2 C0.34 1.67 -0.32 1.34 -1 1 C-0.67 0.67 -0.34 0.34 0 0 Z " fill="#354252" transform="translate(534,937)"/>
<path d="M0 0 C1.65 0 3.3 0 5 0 C5.33 1.32 5.66 2.64 6 4 C3.03 3.505 3.03 3.505 0 3 C0 2.01 0 1.02 0 0 Z " fill="#334050" transform="translate(479,926)"/>
<path d="M0 0 C1.98 0.495 1.98 0.495 4 1 C3.67 2.65 3.34 4.3 3 6 C2.01 6 1.02 6 0 6 C-1 3 -1 3 0 0 Z " fill="#495565" transform="translate(523,938)"/>
<path d="M0 0 C-0.33 0.66 -0.66 1.32 -1 2 C-2.98 2 -4.96 2 -7 2 C-7 1.34 -7 0.68 -7 0 C-4.3333581 -1.33332095 -2.83319697 -0.67102033 0 0 Z " fill="#2C3948" transform="translate(484,944)"/>
<path d="M0 0 C0.66 0 1.32 0 2 0 C0.73058503 3.91402949 -0.51167694 5.79072873 -4 8 C-3.40312566 4.65750371 -2.26396123 2.53563658 0 0 Z " fill="#334153" transform="translate(610,419)"/>
<path d="M0 0 C0.33 0 0.66 0 1 0 C1 1.65 1 3.3 1 5 C0.01 4.67 -0.98 4.34 -2 4 C-1.34 4 -0.68 4 0 4 C0 2.68 0 1.36 0 0 Z " fill="#596675" transform="translate(569,933)"/>
<path d="M0 0 C3 1 3 1 3 1 Z " fill="#576674" transform="translate(567,939)"/>
<path d="" fill="#5A6978" transform="translate(0,0)"/>
<path d="M0 0 C0.33 0.66 0.66 1.32 1 2 C0.34 1.67 -0.32 1.34 -1 1 C-0.67 0.67 -0.34 0.34 0 0 Z " fill="#596876" transform="translate(547,928)"/>
<path d="M0 0 C3 1 3 1 3 1 Z " fill="#5B6C80" transform="translate(596,519)"/>
<path d="" fill="#586472" transform="translate(0,0)"/>
<path d="" fill="#5B6977" transform="translate(0,0)"/>
<path d="" fill="#5A6876" transform="translate(0,0)"/>
<path d="M0 0 C2 1 2 1 2 1 Z " fill="#5D6778" transform="translate(519,940)"/>
<path d="" fill="#5E6B7C" transform="translate(0,0)"/>
<path d="" fill="#576475" transform="translate(0,0)"/>
<path d="M0 0 C2 1 2 1 2 1 Z " fill="#586575" transform="translate(547,933)"/>
<path d="" fill="#5C697B" transform="translate(0,0)"/>
<path d="M0 0 C2 1 2 1 2 1 Z " fill="#5B6879" transform="translate(531,932)"/>
<path d="M0 0 C2 1 2 1 2 1 Z " fill="#5A6E82" transform="translate(592,432)"/>
<path d="" fill="#5E7083" transform="translate(0,0)"/>
<path d="" fill="#5B6672" transform="translate(0,0)"/>
<path d="" fill="#5A6675" transform="translate(0,0)"/>
<path d="" fill="#5C6674" transform="translate(0,0)"/>
<path d="" fill="#5C6876" transform="translate(0,0)"/>
<path d="" fill="#5A6774" transform="translate(0,0)"/>
<path d="" fill="#596574" transform="translate(0,0)"/>
<path d="" fill="#5C6676" transform="translate(0,0)"/>
<path d="" fill="#5B6A77" transform="translate(0,0)"/>
<path d="" fill="#5A6777" transform="translate(0,0)"/>
<path d="" fill="#5A6677" transform="translate(0,0)"/>
<path d="" fill="#5B6679" transform="translate(0,0)"/>
<path d="" fill="#5A6878" transform="translate(0,0)"/>
<path d="" fill="#5E6C7F" transform="translate(0,0)"/>
<path d="" fill="#5B6978" transform="translate(0,0)"/>
<path d="" fill="#5B6978" transform="translate(0,0)"/>
<path d="" fill="#606B7B" transform="translate(0,0)"/>
<path d="" fill="#606B7B" transform="translate(0,0)"/>
<path d="" fill="#5E6A7D" transform="translate(0,0)"/>
<path d="" fill="#5C6B79" transform="translate(0,0)"/>
<path d="" fill="#596776" transform="translate(0,0)"/>
<path d="" fill="#5A6777" transform="translate(0,0)"/>
<path d="" fill="#5B6A79" transform="translate(0,0)"/>
<path d="" fill="#5F6E7D" transform="translate(0,0)"/>
<path d="" fill="#5E6878" transform="translate(0,0)"/>
<path d="" fill="#586677" transform="translate(0,0)"/>
<path d="" fill="#5A6576" transform="translate(0,0)"/>
<path d="" fill="#586678" transform="translate(0,0)"/>
<path d="" fill="#5B6876" transform="translate(0,0)"/>
<path d="" fill="#5B677B" transform="translate(0,0)"/>
<path d="" fill="#5A6574" transform="translate(0,0)"/>
<path d="" fill="#5B6676" transform="translate(0,0)"/>
<path d="" fill="#525557" transform="translate(0,0)"/>
<path d="" fill="#5A6677" transform="translate(0,0)"/>
<path d="" fill="#5B6979" transform="translate(0,0)"/>
<path d="" fill="#586575" transform="translate(0,0)"/>
<path d="" fill="#5C6678" transform="translate(0,0)"/>
<path d="" fill="#5A6775" transform="translate(0,0)"/>
<path d="" fill="#5A6B78" transform="translate(0,0)"/>
<path d="" fill="#5E6B7D" transform="translate(0,0)"/>
<path d="" fill="#5C6978" transform="translate(0,0)"/>
<path d="" fill="#596575" transform="translate(0,0)"/>
<path d="" fill="#5B697A" transform="translate(0,0)"/>
<path d="" fill="#5A6877" transform="translate(0,0)"/>
<path d="" fill="#586777" transform="translate(0,0)"/>
<path d="" fill="#5E6B7C" transform="translate(0,0)"/>
<path d="" fill="#5C687A" transform="translate(0,0)"/>
<path d="" fill="#5C697A" transform="translate(0,0)"/>
<path d="" fill="#5D6C7B" transform="translate(0,0)"/>
<path d="" fill="#5C6978" transform="translate(0,0)"/>
<path d="" fill="#5E6978" transform="translate(0,0)"/>
<path d="" fill="#586473" transform="translate(0,0)"/>
<path d="" fill="#586271" transform="translate(0,0)"/>
<path d="" fill="#5A6675" transform="translate(0,0)"/>
<path d="" fill="#5A6575" transform="translate(0,0)"/>
<path d="" fill="#5C6877" transform="translate(0,0)"/>
<path d="" fill="#5D6979" transform="translate(0,0)"/>
<path d="" fill="#7F92A7" transform="translate(0,0)"/>
<path d="" fill="#8193AB" transform="translate(0,0)"/>
<path d="" fill="#8093A7" transform="translate(0,0)"/>
<path d="" fill="#7C90A8" transform="translate(0,0)"/>
<path d="" fill="#7A8FA5" transform="translate(0,0)"/>
<path d="" fill="#5B6D81" transform="translate(0,0)"/>
<path d="" fill="#5B6C7D" transform="translate(0,0)"/>
<path d="" fill="#5C697C" transform="translate(0,0)"/>
<path d="" fill="#5A6C7E" transform="translate(0,0)"/>
<path d="" fill="#5C6B7E" transform="translate(0,0)"/>
<path d="" fill="#5A697B" transform="translate(0,0)"/>
<path d="" fill="#546578" transform="translate(0,0)"/>
<path d="" fill="#768AA3" transform="translate(0,0)"/>
<path d="" fill="#75889F" transform="translate(0,0)"/>
<path d="" fill="#5C6B80" transform="translate(0,0)"/>
<path d="" fill="#5C6B7E" transform="translate(0,0)"/>
<path d="" fill="#58697D" transform="translate(0,0)"/>
<path d="" fill="#5B6B82" transform="translate(0,0)"/>
<path d="" fill="#5C6C82" transform="translate(0,0)"/>
<path d="" fill="#5B6C82" transform="translate(0,0)"/>
<path d="" fill="#5A6D81" transform="translate(0,0)"/>
<path d="" fill="#596C7F" transform="translate(0,0)"/>
<path d="" fill="#596C80" transform="translate(0,0)"/>
<path d="" fill="#5C6B81" transform="translate(0,0)"/>
<path d="" fill="#5A6A7F" transform="translate(0,0)"/>
<path d="" fill="#5C6C7F" transform="translate(0,0)"/>
<path d="" fill="#586B80" transform="translate(0,0)"/>
<path d="" fill="#5B6F82" transform="translate(0,0)"/>
<path d="" fill="#57687B" transform="translate(0,0)"/>
<path d="" fill="#54697B" transform="translate(0,0)"/>
<path d="" fill="#5A697D" transform="translate(0,0)"/>
<path d="" fill="#596C7E" transform="translate(0,0)"/>
<path d="" fill="#5A6879" transform="translate(0,0)"/>
<path d="" fill="#58697C" transform="translate(0,0)"/>
<path d="" fill="#57677A" transform="translate(0,0)"/>
<path d="" fill="#586A7D" transform="translate(0,0)"/>
<path d="" fill="#5B6C7C" transform="translate(0,0)"/>
<path d="" fill="#58697A" transform="translate(0,0)"/>
<path d="" fill="#556A7F" transform="translate(0,0)"/>
<path d="" fill="#5B6A7D" transform="translate(0,0)"/>
<path d="" fill="#596A7B" transform="translate(0,0)"/>
<path d="" fill="#606E7E" transform="translate(0,0)"/>
</svg>
